<?xml version="1.0" standalone="no"?>
<!DOCTYPE svg PUBLIC "-//W3C//DTD SVG 20010904//EN"
 "http://www.w3.org/TR/2001/REC-SVG-20010904/DTD/svg10.dtd">
<svg version="1.0" xmlns="http://www.w3.org/2000/svg"
 width="479.000000pt" height="84.000000pt" viewBox="0 0 479.000000 84.000000"
 preserveAspectRatio="xMidYMid meet">

<g transform="translate(0.000000,84.000000) scale(0.100000,-0.100000)"
fill="#000000" stroke="none">
<path d="M730 730 c-16 -10 -16 -12 33 -73 51 -65 46 -154 -14 -222 -47 -53
-20 -87 35 -44 91 72 93 230 4 320 -32 32 -36 33 -58 19z"/>
<path d="M325 705 c-69 -37 -95 -80 -95 -156 0 -100 68 -172 163 -172 75 0
132 35 166 100 30 58 -3 174 -61 217 -37 27 -132 33 -173 11z m143 -61 c12 -8
30 -30 39 -49 14 -29 14 -41 5 -74 -14 -46 -63 -91 -99 -91 -71 0 -130 63
-120 128 16 93 100 134 175 86z"/>
<path d="M643 634 c-3 -8 4 -25 16 -38 26 -28 27 -61 1 -83 -28 -25 -26 -53 4
-53 34 0 76 53 76 95 0 61 -79 126 -97 79z"/>
<path d="M1215 508 c4 -35 14 -108 23 -163 l17 -100 57 -3 c65 -3 58 -15 84
130 10 54 20 96 22 93 3 -2 14 -53 26 -112 l22 -108 57 -3 c52 -3 57 -1 62 20
6 27 45 286 45 300 0 5 -17 8 -37 6 l-38 -3 -16 -118 c-10 -65 -19 -121 -22
-123 -2 -2 -12 35 -21 83 -33 169 -31 165 -79 161 l-41 -3 -25 -124 c-13 -67
-27 -117 -31 -110 -4 8 -13 57 -19 109 -17 132 -16 130 -58 130 l-35 0 7 -62z"/>
<path d="M1740 404 l0 -165 38 3 37 3 3 163 2 162 -40 0 -40 0 0 -166z"/>
<path d="M1950 404 l0 -165 38 3 37 3 3 90 3 90 59 -93 c56 -87 61 -92 95 -92
l35 0 0 165 0 165 -40 0 -40 0 0 -92 0 -93 -56 93 c-56 91 -57 92 -95 92 l-39
0 0 -166z"/>
<path d="M2320 540 c0 -28 2 -30 40 -30 l40 0 0 -135 0 -135 40 0 40 0 0 135
0 135 40 0 c38 0 40 2 40 30 l0 30 -120 0 -120 0 0 -30z"/>
<path d="M2660 405 l0 -165 105 0 105 0 0 35 0 35 -70 0 -70 0 0 35 0 35 60 0
60 0 0 30 0 30 -60 0 -60 0 0 35 0 35 65 0 c49 0 65 3 65 14 0 8 3 21 6 30 5
14 -7 16 -100 16 l-106 0 0 -165z"/>
<path d="M2982 408 l3 -163 38 -3 37 -3 0 55 c0 55 1 56 28 56 24 0 32 -8 55
-55 26 -53 28 -55 67 -55 l40 0 -14 33 c-7 17 -19 44 -26 59 -10 22 -10 30 4
49 10 15 16 44 16 82 0 48 -4 62 -25 82 -22 23 -31 25 -125 25 l-100 0 2 -162z
m168 52 l0 -50 -45 0 -45 0 0 50 0 50 45 0 45 0 0 -50z"/>
<path d="M3330 558 c0 -11 28 -124 71 -280 l10 -38 58 0 58 0 41 159 c23 87
42 162 42 165 0 4 -17 6 -37 4 l-37 -3 -32 -125 c-35 -141 -34 -141 -73 18
l-27 107 -37 3 c-25 2 -37 -1 -37 -10z"/>
<path d="M3710 405 l0 -165 40 0 40 0 0 165 0 165 -40 0 -40 0 0 -165z"/>
<path d="M3920 405 l0 -165 105 0 105 0 0 35 0 35 -70 0 -70 0 0 35 0 35 60 0
60 0 0 30 0 30 -60 0 -60 0 0 35 0 35 64 0 c58 0 64 2 70 23 3 12 6 25 6 30 0
4 -47 7 -105 7 l-105 0 0 -165z"/>
<path d="M4225 543 c7 -39 45 -290 45 -297 0 -3 26 -6 59 -6 l59 0 21 112 c12
61 23 113 25 116 2 2 9 -23 15 -55 7 -32 17 -83 24 -113 l12 -55 58 -3 c31 -2
57 -1 57 1 0 9 41 274 46 300 5 26 4 27 -34 27 l-39 0 -17 -122 c-10 -68 -19
-124 -21 -127 -2 -2 -7 7 -10 20 -7 31 -45 220 -45 225 0 2 -19 4 -43 4 l-43
0 -23 -117 c-13 -65 -27 -121 -31 -126 -3 -4 -12 37 -19 90 -21 161 -18 153
-62 153 -37 0 -38 -1 -34 -27z"/>
<path d="M173 290 c-47 -28 -62 -86 -38 -141 30 -66 47 -71 275 -67 l199 3 30
29 c16 15 32 39 36 53 9 36 -12 89 -46 118 -30 25 -31 25 -227 25 -178 0 -200
-2 -229 -20z m404 -41 c32 -12 43 -26 43 -56 0 -49 -17 -53 -220 -53 -158 0
-191 3 -204 16 -29 28 -15 83 24 97 28 10 328 7 357 -4z"/>
</g>
</svg>
